<?xml version="1.0" encoding="UTF-8" standalone="no"?>
<svg
   xmlns:dc="http://purl.org/dc/elements/1.1/"
   xmlns:cc="http://creativecommons.org/ns#"
   xmlns:rdf="http://www.w3.org/1999/02/22-rdf-syntax-ns#"
   xmlns:svg="http://www.w3.org/2000/svg"
   xmlns="http://www.w3.org/2000/svg"
   xmlns:sodipodi="http://sodipodi.sourceforge.net/DTD/sodipodi-0.dtd"
   xmlns:inkscape="http://www.inkscape.org/namespaces/inkscape"
   id="Capa_2"
   data-name="Capa 2"
   viewBox="0 0 767 193"
   version="1.1"
   sodipodi:docname="Logotipo de la Agencia Estatal de Meteorología (2025).svg"
   width="767"
   height="193"
   inkscape:version="0.92.4 (5da689c313, 2019-01-14)">
  <metadata
     id="metadata2072">
    <rdf:RDF>
      <cc:Work
         rdf:about="">
        <dc:format>image/svg+xml</dc:format>
        <dc:type
           rdf:resource="http://purl.org/dc/dcmitype/StillImage" />
        <dc:title></dc:title>
      </cc:Work>
    </rdf:RDF>
  </metadata>
  <sodipodi:namedview
     pagecolor="#ffffff"
     bordercolor="#666666"
     borderopacity="1"
     objecttolerance="10"
     gridtolerance="10"
     guidetolerance="10"
     inkscape:pageopacity="0"
     inkscape:pageshadow="2"
     inkscape:window-width="2560"
     inkscape:window-height="1009"
     id="namedview2070"
     showgrid="false"
     inkscape:zoom="1"
     inkscape:cx="674.87296"
     inkscape:cy="211.73364"
     inkscape:window-x="1358"
     inkscape:window-y="-8"
     inkscape:window-maximized="1"
     inkscape:current-layer="aemet_miteco_col_pos" />
  <defs
     id="defs19">
    <style
       id="style2">
      .cls-1 {
        fill: #f7cc7e;
      }

      .cls-1, .cls-2, .cls-3, .cls-4, .cls-5, .cls-6, .cls-7, .cls-8, .cls-9 {
        fill-rule: evenodd;
      }

      .cls-10, .cls-4 {
        fill: #0044ae;
      }

      .cls-11 {
        clip-path: url(#clippath-4);
      }

      .cls-2 {
        fill: #006f46;
      }

      .cls-3, .cls-12 {
        fill: #bcbab9;
      }

      .cls-13, .cls-5 {
        fill: #fff;
      }

      .cls-14 {
        fill: #1951a3;
      }

      .cls-15 {
        fill: none;
      }

      .cls-6 {
        fill: #d95aaf;
      }

      .cls-16 {
        clip-path: url(#clippath-1);
      }

      .cls-17, .cls-8 {
        fill: #b60027;
      }

      .cls-7, .cls-18 {
        fill: #a07e00;
      }

      .cls-19 {
        clip-path: url(#clippath-3);
      }

      .cls-20, .cls-9 {
        fill: #211915;
      }

      .cls-21 {
        fill: #f7d117;
      }

      .cls-22 {
        clip-path: url(#clippath-2);
      }

      .cls-23 {
        fill: #f5e326;
      }

      .cls-24 {
        clip-path: url(#clippath);
      }
    </style>
    <clipPath
       id="clippath">
      <rect
         class="cls-15"
         width="223.97"
         height="57"
         id="rect4"
         x="0"
         y="0"
         style="fill:none" />
    </clipPath>
    <clipPath
       id="clippath-1">
      <path
         class="cls-15"
         d="m 15.07,23.63 h -3.42 c 0,0 0,0 0,0 h -0.03 v 0.09 c 0,0 0.02,0 0.02,0 0.08,0.04 0.14,0.12 0.14,0.23 0,0.09 -0.05,0.17 -0.13,0.21 -0.01,0 -0.03,0 -0.04,0 h -0.03 c -0.07,0.05 -0.12,0.11 -0.12,0.19 0,0.13 0.11,0.21 0.25,0.21 h 3.37 c 0.13,0 0.25,-0.09 0.25,-0.21 0,-0.08 -0.06,-0.15 -0.14,-0.19 v 0 c -0.1,-0.04 -0.17,-0.13 -0.17,-0.23 0,-0.1 0.07,-0.19 0.16,-0.23 v 0 c 0,0 0,0 0,0 l -0.03,-0.09 -0.09,0.02 z m -3.24,-2.18 h -0.04 c 0,0 0.03,0.05 0.03,0.05 0,0 0.07,0.1 0.11,0.22 v 0 c 0.03,0.07 0.04,0.12 0.05,0.13 l -0.04,0.04 v 0 c 0,0 0,0.02 0,0.02 v 0.02 c 0,0.1 0.09,0.15 0.22,0.19 0.02,0 0.05,0.01 0.08,0.02 v 0.19 h 1.59 v -0.1 c 0.35,-0.03 0.66,-0.08 0.81,-0.11 v 0 c 0.13,-0.04 0.22,-0.1 0.22,-0.19 v -0.02 0 c 0,0 -0.06,-0.07 -0.06,-0.07 0,-0.02 0.04,-0.11 0.07,-0.15 0.06,-0.11 0.11,-0.19 0.11,-0.19 L 15,21.46 h -0.04 c -0.4,-0.13 -0.95,-0.21 -1.56,-0.21 -0.61,0 -1.16,0.08 -1.56,0.19 m 1.26,-2.69 v 0.71 h 0.11 c -0.08,0.1 -0.13,0.27 -0.13,0.46 0,0.3 0.12,0.55 0.31,0.56 0.19,0 0.31,-0.27 0.31,-0.56 0,-0.19 -0.05,-0.36 -0.13,-0.46 h 0.13 v -0.71 h -0.58 z"
         id="path7"
         inkscape:connector-curvature="0"
         style="fill:none" />
    </clipPath>
    <clipPath
       id="clippath-2">
      <rect
         class="cls-15"
         x="11.28"
         y="18.620001"
         width="4.25"
         height="6.1300001"
         id="rect10"
         style="fill:none" />
    </clipPath>
    <clipPath
       id="clippath-3">
      <path
         class="cls-15"
         d="m 41.66,23.71 v 0 c 0,0 0.01,0 0.01,0 0.09,0.04 0.15,0.13 0.15,0.23 0,0.11 -0.07,0.2 -0.17,0.23 v 0 c -0.08,0.04 -0.14,0.1 -0.14,0.19 0,0.13 0.12,0.21 0.25,0.21 h 3.37 c 0.13,0 0.25,-0.09 0.25,-0.21 0,-0.08 -0.05,-0.15 -0.12,-0.18 v 0 c 0,0 -0.03,-0.01 -0.03,-0.01 -0.01,0 -0.03,0 -0.04,0 -0.08,-0.04 -0.13,-0.12 -0.13,-0.21 0,-0.1 0.05,-0.19 0.14,-0.23 h 0.03 c 0,0 0,-0.1 0,-0.1 H 45.2 c 0,0 -0.07,0 -0.07,0 h -3.36 l -0.09,-0.02 -0.02,0.09 z m 0.23,-2.26 h -0.04 c 0,0 0.03,0.05 0.03,0.05 0,0 0.08,0.11 0.11,0.22 0.03,0.07 0.04,0.14 0.04,0.14 v 0 c 0,0 -0.03,0.04 -0.03,0.04 v 0 c 0,0 0,0.02 0,0.02 v 0.02 c 0,0.09 0.09,0.15 0.22,0.19 0.02,0 0.05,0.01 0.08,0.02 v 0.2 h 1.59 v -0.11 c 0.35,-0.03 0.66,-0.07 0.81,-0.11 0.13,-0.04 0.22,-0.1 0.22,-0.19 v -0.02 0 c 0,0 -0.06,-0.07 -0.06,-0.07 0,-0.03 0.04,-0.11 0.07,-0.15 0.06,-0.11 0.11,-0.19 0.11,-0.19 l 0.02,-0.04 h -0.04 c -0.4,-0.13 -0.95,-0.21 -1.56,-0.21 -0.61,0 -1.15,0.08 -1.55,0.2 m 1.96,-1.91 0.07,0.06 -0.07,0.06 -0.06,-0.06 z m -0.12,0.06 c 0,0.06 0.05,0.12 0.11,0.12 0.06,0 0.12,-0.05 0.12,-0.12 0,-0.07 -0.06,-0.12 -0.12,-0.12 -0.06,0 -0.11,0.05 -0.11,0.12 m 0.41,-0.08 0.07,0.06 -0.07,0.06 -0.06,-0.06 z m -0.12,0.07 c 0,0.06 0.05,0.12 0.12,0.12 0.07,0 0.12,-0.05 0.12,-0.12 0,-0.07 -0.06,-0.11 -0.12,-0.11 -0.06,0 -0.12,0.05 -0.12,0.11 m -0.88,-0.66 v 0.7 h 0.12 c -0.05,0.04 -0.09,0.11 -0.12,0.18 -0.09,-0.05 -0.2,-0.08 -0.32,-0.08 -0.31,0 -0.57,0.2 -0.57,0.47 0,0.08 0.03,0.14 0.06,0.19 l 0.06,-0.04 c -0.03,-0.05 -0.05,-0.1 -0.05,-0.16 0,-0.22 0.22,-0.4 0.5,-0.4 0.11,0 0.22,0.03 0.3,0.08 0,0.04 -0.01,0.09 -0.01,0.13 0,0.23 0.13,0.44 0.3,0.44 0.18,0 0.31,-0.21 0.31,-0.44 0,-0.04 0,-0.09 -0.01,-0.13 0.08,-0.05 0.19,-0.08 0.3,-0.08 0.28,0 0.5,0.19 0.5,0.4 0,0.05 -0.02,0.12 -0.04,0.16 l 0.05,0.04 c 0.04,-0.06 0.05,-0.13 0.05,-0.2 0,-0.27 -0.26,-0.47 -0.57,-0.47 -0.12,0 -0.23,0.03 -0.32,0.08 -0.03,-0.07 -0.06,-0.13 -0.11,-0.17 q 0,0 0,0 h 0.13 v -0.7 h -0.58 z"
         id="path13"
         inkscape:connector-curvature="0"
         style="fill:none" />
    </clipPath>
    <clipPath
       id="clippath-4">
      <rect
         class="cls-15"
         x="41.360001"
         y="18.74"
         width="4.25"
         height="6.02"
         id="rect16"
         style="fill:none" />
    </clipPath>
  </defs>
  <g
     id="logo"
     transform="translate(0,136)">
    <g
       id="aemet_miteco_col_pos">
      <g
         id="miteco" />
      <path
         id="aemet_institucional_pos"
         class="cls-14"
         d="m 338.89535,-105.97172 h -28.52621 c 0,0 0,0 0,0 v 9.897616 c -8.12884,-11.101886 -20.17157,-12.908296 -27.69827,-12.908296 -12.26853,0 -22.99409,4.32785 -30.70896,12.080359 -8.09121,8.091208 -13.62334,20.736072 -13.62334,35.601315 0,11.666393 3.53756,23.182252 12.83304,33.042236 9.67181,10.311586 20.35973,13.472802 33.04223,13.472802 7.33854,0 18.4028,-1.768776 26.11767,-13.623336 v 10.650288 h 28.52621 v -88.212984 z m -33.682,60.514709 c -3.76335,3.763352 -9.10731,6.134264 -14.86524,6.134264 -6.69877,0 -12.83304,-2.822514 -16.78456,-6.962202 -2.55908,-2.747247 -5.94609,-7.90304 -5.94609,-15.843714 0,-7.940674 3.57518,-13.058834 6.5106,-15.994249 3.76335,-3.763353 9.52128,-6.322432 15.65554,-6.322432 5.1558,0 11.47823,1.956943 15.80609,6.096631 4.13968,3.989154 6.5106,9.897617 6.5106,16.22005 0,7.564338 -3.12359,13.096467 -6.88694,16.671652 z m 285.789,-54.418079 c -5.34396,-5.15579 -14.03731,-8.31701 -24.72523,-8.31701 -6.92457,0 -12.6825,1.20427 -18.77913,4.96763 -5.75793,3.575181 -9.10731,7.714869 -11.29006,11.290054 -2.37091,-5.343961 -6.13426,-9.671814 -10.68792,-12.268534 -5.9461,-3.57518 -12.87067,-3.95152 -16.59638,-3.95152 -6.73641,0 -17.42433,1.39244 -24.76286,12.494335 v -10.311585 h -28.48858 v 88.288251 h 28.48858 v -45.122598 c 0,-2.973048 0.2258,-12.870666 5.53212,-17.988825 2.78488,-2.596714 6.13427,-3.575185 9.89762,-3.575185 2.97305,0 6.54823,0.564503 9.48365,3.575185 4.36549,4.365489 4.55366,11.290057 4.55366,17.198521 v 45.912902 h 28.48858 v -43.955959 c 0,-5.720296 0.60213,-12.682498 4.36548,-17.424322 2.37092,-3.161216 6.32244,-5.343961 11.10189,-5.343961 4.13969,0 7.90305,1.768776 10.31159,4.741824 3.76335,4.741825 3.76335,12.682499 3.76335,17.198522 v 44.746262 h 28.48858 v -55.810519 c 0,-6.322432 -0.60213,-18.214626 -9.10731,-26.305834 z m 115.49729,39.966805 c 0,-10.913723 -1.95695,-24.800494 -12.49433,-35.827117 -10.91373,-11.478228 -25.1392,-13.284638 -34.99918,-13.284638 -9.85999,0 -23.14462,2.03221 -33.83254,12.644868 -8.88151,9.107313 -13.4728,22.241414 -13.4728,34.886278 0,14.639442 5.56976,26.343469 13.28463,34.020708 10.27395,10.273953 21.94035,12.644865 35.22498,12.644865 9.85998,0 19.45653,-1.392441 27.84881,-6.548234 4.74182,-2.860148 11.74166,-8.54281 15.91898,-19.042564 l 1.16664,-3.048316 -3.19885,-0.338701 -1.88168,-0.225801 -21.82744,-2.295646 c -2.37091,4.929992 -5.75793,7.15037 -6.1719,7.376172 -2.97305,1.806409 -7.3009,2.559079 -11.51586,2.559079 -4.21495,0 -10.27395,-0.75267 -14.60181,-5.569762 -3.53755,-3.95152 -5.34396,-10.273952 -5.34396,-15.015776 h 65.93394 v -2.973049 z m -64.95547,-13.999672 c 0.82794,-3.95152 2.78488,-7.15037 4.92999,-9.596549 2.78488,-2.709614 7.15037,-5.682663 14.52654,-5.682663 5.68267,0 10.27396,1.956944 13.39754,5.005259 4.17732,3.876253 5.56976,9.446015 5.75793,10.273953 z m 105.18571,-32.101393 v -17.61249 H 718.2413 v 105.900737 h 28.48858 v -65.331801 h 17.61249 v -22.956446 z m -302.57355,46.101065 c 0,-10.913723 -1.95695,-24.800494 -12.49433,-35.827117 -10.91373,-11.478228 -25.1392,-13.284638 -34.99918,-13.284638 -9.85999,0 -23.14462,2.03221 -33.83254,12.644868 -8.88151,9.107313 -13.4728,22.241414 -13.4728,34.886278 0,14.639442 5.56976,26.343469 13.28463,34.020708 10.27395,10.273953 21.94035,12.644865 35.22498,12.644865 9.85998,0 19.45653,-1.392441 27.84881,-6.548234 4.74182,-2.860148 11.74166,-8.54281 15.91898,-19.042564 l 1.16664,-3.048316 -3.19885,-0.338701 -1.88168,-0.225801 -21.82744,-2.295646 c -2.37091,4.929992 -5.75793,7.15037 -6.1719,7.376172 -2.97305,1.806409 -7.3009,2.559079 -11.51586,2.559079 -4.21495,0 -10.27395,-0.75267 -14.60181,-5.569762 -3.53755,-3.95152 -5.34396,-10.273952 -5.34396,-15.015776 h 65.93394 v -2.973049 z m -64.95547,-13.999672 c 0.82794,-3.95152 2.78488,-7.15037 4.92999,-9.596549 2.78488,-2.709614 7.15037,-5.682663 14.52654,-5.682663 5.68267,0 10.27396,1.956944 13.39754,5.005259 4.17732,3.876253 5.56976,9.446015 5.75793,10.273953 z M 256.96717,36.809876 254.63389,29.772407 h -9.70945 l -2.25801,7.037469 h -4.29022 l 8.88151,-26.004766 h 5.30633 l 8.88151,26.004766 h -4.40312 z m -7.11274,-22.128513 h -0.18817 l -3.76335,11.478225 h 7.67724 z m 31.16056,23.972556 c 0,1.994577 -0.75267,3.537552 -2.29564,4.553657 -1.54298,1.016105 -4.02679,1.542974 -7.52671,1.542974 -1.58061,0 -2.93541,-0.1129 -4.02679,-0.301068 -1.09137,-0.225801 -1.99457,-0.526869 -2.70961,-0.903205 -0.71504,-0.413968 -1.24191,-0.865571 -1.54297,-1.467707 -0.33871,-0.564503 -0.48924,-1.241906 -0.48924,-1.956943 0,-1.053739 0.30107,-1.91931 0.86557,-2.483813 0.60214,-0.602137 1.39244,-1.016105 2.44618,-1.241906 v -0.413969 c -1.46771,-0.451603 -2.18274,-1.467708 -2.18274,-2.973049 0,-0.978471 0.3387,-1.768776 1.0161,-2.295645 0.6774,-0.526869 1.46771,-0.903205 2.40855,-1.129006 v -0.150534 c -1.12901,-0.526869 -2.03221,-1.317173 -2.63435,-2.295645 -0.60214,-0.978472 -0.9032,-2.145111 -0.9032,-3.462284 0,-1.994577 0.6774,-3.575185 1.99457,-4.817092 1.31718,-1.204272 3.23649,-1.806409 5.7203,-1.806409 1.35481,0 2.52145,0.188168 3.49992,0.602137 v -0.52687 c 0,-0.865571 0.18816,-1.542974 0.60213,-2.03221 0.41397,-0.489236 1.05374,-0.715037 1.91931,-0.715037 h 2.97305 v 3.274117 h -3.95152 v 0.790304 c 0.86557,0.564503 1.54298,1.317173 1.99458,2.220378 0.4516,0.903204 0.71504,1.91931 0.71504,3.048315 0,1.956944 -0.67741,3.537552 -1.99458,4.741825 -1.31717,1.204272 -3.23648,1.806409 -5.7203,1.806409 -0.94084,0 -1.80641,-0.112901 -2.52144,-0.301068 -0.48924,0.188167 -0.94084,0.413968 -1.31718,0.715037 -0.37633,0.301068 -0.5645,0.715037 -0.5645,1.204272 0,0.52687 0.2258,0.903205 0.71504,1.129006 0.48923,0.225801 1.129,0.338702 1.99457,0.338702 h 4.77946 c 2.37091,0 4.10206,0.489236 5.19343,1.430074 1.05374,0.940838 1.61824,2.258011 1.61824,3.913887 z m -3.80098,0.451602 c 0,-0.677403 -0.26344,-1.204272 -0.75267,-1.618241 -0.52687,-0.413969 -1.43008,-0.602137 -2.78488,-0.602137 h -6.54824 c -0.9032,0.52687 -1.35481,1.27954 -1.35481,2.220378 0,0.790304 0.30107,1.430074 0.94084,1.91931 0.63977,0.489236 1.69351,0.715037 3.23649,0.715037 h 2.52144 c 3.16122,0 4.74183,-0.903204 4.74183,-2.67198 z m -6.09664,-11.85456 c 1.20428,0 2.10748,-0.263435 2.78489,-0.790304 0.63977,-0.52687 0.97847,-1.354807 0.97847,-2.483813 v -0.752671 c 0,-1.129005 -0.3387,-1.956943 -0.97847,-2.483812 -0.67741,-0.52687 -1.58061,-0.790304 -2.78489,-0.790304 -1.20427,0 -2.10747,0.263434 -2.78488,0.790304 -0.63977,0.526869 -0.97847,1.354807 -0.97847,2.483812 v 0.752671 c 0,1.129006 0.3387,1.956943 0.97847,2.483813 0.67741,0.526869 1.58061,0.790304 2.78488,0.790304 z m 19.94577,10.010518 c -1.39244,0 -2.63434,-0.225802 -3.72571,-0.715037 -1.09138,-0.489236 -2.03222,-1.16664 -2.78489,-2.032211 -0.75267,-0.865571 -1.3548,-1.956943 -1.76877,-3.198849 -0.41397,-1.241907 -0.60214,-2.634347 -0.60214,-4.177322 0,-1.542974 0.18817,-2.935415 0.60214,-4.177321 0.41397,-1.241907 1.0161,-2.333279 1.76877,-3.19885 0.75267,-0.865571 1.69351,-1.542975 2.78489,-2.03221 1.09137,-0.451603 2.33327,-0.715037 3.72571,-0.715037 1.39244,0 2.67198,0.263434 3.72572,0.75267 1.09138,0.489236 1.99458,1.166639 2.70962,2.069844 0.71503,0.865571 1.27954,1.91931 1.61824,3.085949 0.37633,1.16664 0.52687,2.408546 0.52687,3.763353 v 1.542974 h -13.28464 v 0.63977 c 0,1.467708 0.4516,2.709614 1.31718,3.650452 0.86557,0.940839 2.14511,1.430074 3.76335,1.430074 1.20427,0 2.18274,-0.263434 3.01068,-0.790304 0.82794,-0.526869 1.50534,-1.204273 2.06984,-2.107477 l 2.37092,2.370912 c -0.71504,1.204273 -1.76878,2.145111 -3.12359,2.860148 -1.3548,0.715037 -2.97304,1.053739 -4.77945,1.053739 z m 0,-17.085621 c -0.6774,0 -1.31717,0.1129 -1.91931,0.376335 -0.5645,0.263435 -1.09137,0.602137 -1.50534,1.053739 -0.41397,0.451602 -0.71503,0.978472 -0.94083,1.618241 -0.22581,0.602137 -0.33871,1.317174 -0.33871,2.032211 v 0.263435 h 9.03205 v -0.376336 c 0,-1.505341 -0.37634,-2.67198 -1.16664,-3.612818 -0.7903,-0.940838 -1.80641,-1.354807 -3.16122,-1.354807 z m 12.04273,16.634018 V 17.42861 h 4.06442 v 3.19885 h 0.18817 c 0.41397,-1.053739 1.05374,-1.91931 1.91931,-2.596713 0.86557,-0.677404 2.03221,-1.053739 3.53755,-1.053739 1.99458,0 3.53755,0.63977 4.62893,1.956943 1.09137,1.317174 1.65587,3.161217 1.65587,5.569762 V 36.809876 H 315.0357 V 25.030583 c 0,-3.010682 -1.20427,-4.553657 -3.65045,-4.553657 -0.52687,0 -1.05374,0.07527 -1.54298,0.188168 -0.52687,0.150534 -0.97847,0.338701 -1.3548,0.602136 -0.37634,0.263435 -0.71504,0.63977 -0.94084,1.053739 -0.2258,0.413969 -0.3387,0.903204 -0.3387,1.505341 v 12.945933 h -4.06442 z m 27.99935,0.451603 c -1.39244,0 -2.63435,-0.225802 -3.72572,-0.715037 -1.09138,-0.489236 -1.99458,-1.16664 -2.74725,-2.032211 -0.75267,-0.865571 -1.31717,-1.956943 -1.69351,-3.198849 -0.41397,-1.241907 -0.60214,-2.634347 -0.60214,-4.177322 0,-1.542974 0.18817,-2.935415 0.60214,-4.177321 0.37634,-1.241907 0.97847,-2.333279 1.69351,-3.19885 0.71504,-0.865571 1.65587,-1.542975 2.74725,-2.03221 1.09137,-0.451603 2.33328,-0.715037 3.72572,-0.715037 1.95694,0 3.53755,0.451602 4.77945,1.317173 1.24191,0.865571 2.14511,2.03221 2.70962,3.462284 l -3.34939,1.580609 c -0.26343,-0.903205 -0.75267,-1.618242 -1.43007,-2.145111 -0.6774,-0.52687 -1.58061,-0.790304 -2.70961,-0.790304 -1.46771,0 -2.59672,0.451602 -3.38702,1.39244 -0.75267,0.940838 -1.12901,2.145111 -1.12901,3.612818 v 3.462285 c 0,1.467707 0.37634,2.709614 1.12901,3.612818 0.75267,0.940839 1.88167,1.392441 3.38702,1.392441 1.20427,0 2.14511,-0.301068 2.86014,-0.865571 0.71504,-0.564503 1.27954,-1.354807 1.69351,-2.333279 l 3.08595,1.655875 c -0.63977,1.580608 -1.61824,2.822515 -2.89778,3.688086 -1.27954,0.865571 -2.86015,1.27954 -4.74182,1.27954 z m 12.49433,-23.295153 c -0.82794,0 -1.46771,-0.188168 -1.84405,-0.602136 -0.37633,-0.413969 -0.5645,-0.903205 -0.5645,-1.542975 v -0.63977 c 0,-0.63977 0.18817,-1.129006 0.5645,-1.5429744 0.37634,-0.4139688 1.01611,-0.6021364 1.84405,-0.6021364 0.82793,0 1.4677,0.1881676 1.80641,0.6021364 0.3387,0.4139684 0.5645,0.9032044 0.5645,1.5429744 v 0.63977 c 0,0.63977 -0.18817,1.129006 -0.5645,1.542975 -0.37634,0.413968 -0.97848,0.602136 -1.80641,0.602136 z m -2.06985,3.462284 h 4.06442 v 19.381266 h -4.06442 z m 22.99409,19.381266 c -1.05374,0 -1.88168,-0.301068 -2.44618,-0.903204 -0.56451,-0.602137 -0.90321,-1.392441 -1.05374,-2.333279 h -0.18817 c -0.37633,1.204273 -1.05374,2.145111 -2.03221,2.747247 -0.97847,0.63977 -2.18274,0.940839 -3.61282,0.940839 -1.99457,0 -3.57518,-0.52687 -4.62892,-1.580608 -1.05374,-1.053739 -1.61824,-2.44618 -1.61824,-4.214955 0,-1.91931 0.71503,-3.387018 2.10747,-4.365489 1.39245,-0.978472 3.46229,-1.467708 6.1719,-1.467708 h 3.49992 v -1.655875 c 0,-1.204273 -0.3387,-2.107477 -0.97847,-2.747247 -0.63977,-0.63977 -1.65588,-0.978472 -3.01068,-0.978472 -1.12901,0 -2.06985,0.263435 -2.78488,0.75267 -0.71504,0.489236 -1.31718,1.129006 -1.80641,1.91931 l -2.40855,-2.182744 c 0.63977,-1.091373 1.54298,-1.994577 2.70962,-2.709614 1.16663,-0.715037 2.70961,-1.053739 4.59128,-1.053739 2.52145,0 4.44076,0.564503 5.75793,1.731142 1.31718,1.16664 1.99458,2.860148 1.99458,5.042893 v 9.70945 h 2.03221 v 3.31175 h -2.25801 z m -8.20411,-2.634346 c 1.27954,0 2.29564,-0.263435 3.12358,-0.827938 0.82794,-0.564503 1.24191,-1.317173 1.24191,-2.258012 v -2.784881 h -3.42465 c -2.82252,0 -4.21496,0.865572 -4.21496,2.596714 v 0.677403 c 0,0.865571 0.30107,1.505341 0.86557,1.956944 0.56451,0.451602 1.39244,0.63977 2.40855,0.63977 z m 22.88118,2.634346 V 10.80511 h 16.67165 v 3.725719 h -12.45669 v 7.225637 h 11.29005 v 3.725719 h -11.29005 v 7.601972 h 12.45669 v 3.725719 z m 26.494,0.451603 c -1.84404,0 -3.38701,-0.338702 -4.62892,-0.978472 -1.24191,-0.63977 -2.33328,-1.542975 -3.23648,-2.67198 l 2.59671,-2.370913 c 0.71504,0.865572 1.50534,1.542975 2.40855,2.032211 0.86557,0.489236 1.91931,0.715037 3.08594,0.715037 1.16664,0 2.06985,-0.225801 2.67198,-0.677404 0.56451,-0.451602 0.86558,-1.091372 0.86558,-1.919309 0,-0.63977 -0.18817,-1.16664 -0.60214,-1.580609 -0.41397,-0.451602 -1.12901,-0.715037 -2.14511,-0.827937 l -1.80641,-0.225801 c -1.99458,-0.263435 -3.53755,-0.827938 -4.66656,-1.731142 -1.129,-0.903205 -1.69351,-2.258012 -1.69351,-4.026788 0,-0.940838 0.18817,-1.768775 0.52687,-2.521446 0.3387,-0.715037 0.82794,-1.354807 1.46771,-1.844043 0.63977,-0.526869 1.39244,-0.903204 2.25801,-1.166639 0.86557,-0.263435 1.84404,-0.413969 2.93542,-0.413969 1.73114,0 3.16121,0.263435 4.25259,0.827938 1.09137,0.526869 2.10747,1.317173 2.97304,2.258011 l -2.48381,2.370912 c -0.48923,-0.602136 -1.129,-1.091372 -1.95694,-1.542974 -0.82794,-0.451602 -1.73114,-0.63977 -2.78488,-0.63977 -1.12901,0 -1.95695,0.225801 -2.48382,0.677403 -0.52687,0.451603 -0.7903,1.016106 -0.7903,1.768776 0,0.752671 0.2258,1.317174 0.71504,1.693509 0.48923,0.376335 1.2419,0.63977 2.25801,0.827937 l 1.80641,0.225802 c 2.14511,0.338701 3.68808,0.940838 4.66656,1.881676 0.97847,0.940838 1.4677,2.182744 1.4677,3.725719 0,0.940838 -0.18816,1.806409 -0.52687,2.55908 -0.37633,0.75267 -0.86557,1.39244 -1.54297,1.956943 -0.6774,0.526869 -1.46771,0.978472 -2.40855,1.27954 -0.94083,0.301068 -1.99457,0.451602 -3.16121,0.451602 z m 17.01036,-0.451603 c -1.43008,0 -2.48381,-0.376335 -3.19885,-1.091372 -0.71504,-0.715037 -1.09137,-1.768776 -1.09137,-3.123583 v -11.85456 h -3.01069 V 17.42861 h 1.61824 c 0.67741,0 1.12901,-0.150534 1.39245,-0.451602 0.26343,-0.301068 0.37633,-0.790304 0.37633,-1.467707 v -3.387018 h 3.65045 v 5.306327 h 4.06442 v 3.311751 h -4.06442 v 12.720132 h 3.76336 v 3.31175 h -3.53756 z m 22.09088,0 c -1.05374,0 -1.88168,-0.301068 -2.44618,-0.903204 -0.5645,-0.602137 -0.90321,-1.392441 -1.05374,-2.333279 h -0.18817 c -0.37633,1.204273 -1.05374,2.145111 -2.03221,2.747247 -0.97847,0.63977 -2.18274,0.940839 -3.61282,0.940839 -1.99457,0 -3.57518,-0.52687 -4.62892,-1.580608 -1.05374,-1.053739 -1.61824,-2.44618 -1.61824,-4.214955 0,-1.91931 0.71503,-3.387018 2.10748,-4.365489 1.39244,-0.978472 3.46228,-1.467708 6.17189,-1.467708 h 3.49992 v -1.655875 c 0,-1.204273 -0.3387,-2.107477 -0.97847,-2.747247 -0.63977,-0.63977 -1.65588,-0.978472 -3.01068,-0.978472 -1.12901,0 -2.06985,0.263435 -2.78488,0.75267 -0.71504,0.489236 -1.31718,1.129006 -1.80641,1.91931 l -2.40855,-2.182744 c 0.63977,-1.091373 1.54298,-1.994577 2.70962,-2.709614 1.16663,-0.715037 2.70961,-1.053739 4.59129,-1.053739 2.52144,0 4.44075,0.564503 5.75793,1.731142 1.31717,1.16664 1.99457,2.860148 1.99457,5.042893 v 9.70945 h 2.03221 v 3.31175 h -2.25801 z m -8.20411,-2.634346 c 1.27954,0 2.29564,-0.263435 3.12358,-0.827938 0.82794,-0.564503 1.24191,-1.317173 1.24191,-2.258012 v -2.784881 h -3.42465 c -2.82252,0 -4.21496,0.865572 -4.21496,2.596714 v 0.677403 c 0,0.865571 0.30107,1.505341 0.86557,1.956944 0.56451,0.451602 1.39244,0.63977 2.40855,0.63977 z m 18.62859,2.634346 c -1.43007,0 -2.48381,-0.376335 -3.19885,-1.091372 -0.71503,-0.715037 -1.09137,-1.768776 -1.09137,-3.123583 v -11.85456 h -3.01068 V 17.42861 h 1.61824 c 0.67741,0 1.12901,-0.150534 1.39244,-0.451602 0.26344,-0.301068 0.37634,-0.790304 0.37634,-1.467707 v -3.387018 h 3.65045 v 5.306327 h 4.06442 v 3.311751 h -4.06442 v 12.720132 h 3.76335 v 3.31175 h -3.53755 z m 21.33821,0 c -1.05374,0 -1.88167,-0.301068 -2.44618,-0.903204 -0.5645,-0.602137 -0.9032,-1.392441 -1.05373,-2.333279 h -0.18817 c -0.37634,1.204273 -1.05374,2.145111 -2.03221,2.747247 -0.97847,0.63977 -2.18275,0.940839 -3.61282,0.940839 -1.99458,0 -3.57519,-0.52687 -4.62892,-1.580608 -1.05374,-1.053739 -1.61825,-2.44618 -1.61825,-4.214955 0,-1.91931 0.71504,-3.387018 2.10748,-4.365489 1.39244,-0.978472 3.46229,-1.467708 6.1719,-1.467708 h 3.49992 v -1.655875 c 0,-1.204273 -0.3387,-2.107477 -0.97847,-2.747247 -0.63977,-0.63977 -1.65588,-0.978472 -3.01069,-0.978472 -1.129,0 -2.06984,0.263435 -2.78488,0.75267 -0.71503,0.489236 -1.31717,1.129006 -1.80641,1.91931 l -2.40854,-2.182744 c 0.63977,-1.091373 1.54297,-1.994577 2.70961,-2.709614 1.16664,-0.715037 2.70962,-1.053739 4.59129,-1.053739 2.52145,0 4.44076,0.564503 5.75793,1.731142 1.35481,1.16664 1.99458,2.860148 1.99458,5.042893 v 9.70945 h 2.03221 v 3.31175 h -2.25801 z m -8.20411,-2.634346 c 1.27954,0 2.29565,-0.263435 3.12359,-0.827938 0.82793,-0.564503 1.2419,-1.317173 1.2419,-2.258012 v -2.784881 h -3.42465 c -2.82251,0 -4.21495,0.865572 -4.21495,2.596714 v 0.677403 c 0,0.865571 0.30107,1.505341 0.86557,1.956944 0.60214,0.451602 1.39244,0.63977 2.40854,0.63977 z m 17.49959,2.634346 c -1.39244,0 -2.40854,-0.338701 -3.12358,-1.053738 -0.6774,-0.715037 -1.0161,-1.693509 -1.0161,-2.973049 V 9.2245018 h 4.06442 V 33.460493 h 2.67198 v 3.31175 h -2.59672 z m 27.54775,-3.198849 h -0.18817 c -0.41397,1.129005 -1.12901,2.03221 -2.06985,2.67198 -0.94083,0.63977 -2.06984,0.978472 -3.38701,0.978472 -2.44618,0 -4.36549,-0.903205 -5.68267,-2.671981 -1.31717,-1.768775 -1.99457,-4.252588 -1.99457,-7.451438 0,-3.19885 0.6774,-5.682662 1.99457,-7.451438 1.35481,-1.768776 3.23649,-2.67198 5.68267,-2.67198 1.27954,0 2.40854,0.301068 3.38701,0.940838 0.94084,0.63977 1.65588,1.542974 2.06985,2.709614 h 0.18817 V 9.2621353 h 4.06442 V 36.809876 h -4.06442 z m -4.40313,0.150534 c 1.24191,0 2.29565,-0.301068 3.12359,-0.903205 0.82793,-0.602136 1.27954,-1.39244 1.27954,-2.408546 v -6.6235 c 0,-0.978472 -0.41397,-1.806409 -1.27954,-2.408546 -0.86558,-0.602136 -1.88168,-0.903204 -3.12359,-0.903204 -1.43007,0 -2.55908,0.451602 -3.38701,1.354807 -0.82794,0.903204 -1.27954,2.107477 -1.27954,3.612818 v 3.349384 c 0,1.505341 0.41396,2.67198 1.27954,3.612818 0.86557,0.903205 1.99457,1.354807 3.38701,1.354807 z m 20.77371,3.499918 c -1.39244,0 -2.63435,-0.225802 -3.72572,-0.715037 -1.09137,-0.489236 -2.03221,-1.16664 -2.78488,-2.032211 -0.75267,-0.865571 -1.35481,-1.956943 -1.76878,-3.198849 -0.41397,-1.241907 -0.60213,-2.634347 -0.60213,-4.177322 0,-1.542974 0.18816,-2.935415 0.60213,-4.177321 0.41397,-1.241907 1.01611,-2.333279 1.76878,-3.19885 0.75267,-0.865571 1.69351,-1.542975 2.78488,-2.03221 1.09137,-0.451603 2.33328,-0.715037 3.72572,-0.715037 1.39244,0 2.67198,0.263434 3.72572,0.75267 1.09137,0.489236 1.99458,1.166639 2.70961,2.069844 0.71504,0.865571 1.27954,1.91931 1.61824,3.085949 0.33871,1.16664 0.52687,2.408546 0.52687,3.763353 v 1.542974 h -13.28463 v 0.63977 c 0,1.467708 0.4516,2.709614 1.31717,3.650452 0.86557,0.940839 2.14511,1.430074 3.76335,1.430074 1.20428,0 2.18275,-0.263434 3.01069,-0.790304 0.82793,-0.526869 1.50534,-1.204273 2.06984,-2.107477 l 2.37091,2.370912 c -0.71503,1.204273 -1.76877,2.145111 -3.12358,2.860148 -1.35481,0.715037 -2.93542,1.053739 -4.77946,1.053739 z m 0,-17.085621 c -0.71504,0 -1.31717,0.1129 -1.91931,0.376335 -0.5645,0.263435 -1.09137,0.602137 -1.46771,1.053739 -0.41397,0.451602 -0.71504,0.978472 -0.94084,1.618241 -0.2258,0.602137 -0.3387,1.317174 -0.3387,2.032211 v 0.263435 h 9.03205 v -0.376336 c 0,-1.505341 -0.37634,-2.67198 -1.16664,-3.612818 -0.79031,-0.940838 -1.80641,-1.354807 -3.16122,-1.354807 z m 41.43451,-3.236483 h -0.18817 l -2.03221,4.214955 -5.68266,10.386853 -5.68266,-10.386853 -2.03221,-4.214955 h -0.18817 V 36.84751 h -4.02679 V 10.842743 h 5.00526 l 6.9622,13.209368 h 0.22581 l 6.9622,-13.209368 h 4.77946 V 36.84751 h -4.02679 V 16.939375 Z m 16.63402,20.322104 c -1.39244,0 -2.63435,-0.225802 -3.72572,-0.715037 -1.09137,-0.489236 -2.03221,-1.16664 -2.78488,-2.032211 -0.75267,-0.865571 -1.35481,-1.956943 -1.76878,-3.198849 -0.41396,-1.241907 -0.60213,-2.634347 -0.60213,-4.177322 0,-1.542974 0.18817,-2.935415 0.60213,-4.177321 0.41397,-1.241907 1.01611,-2.333279 1.76878,-3.19885 0.75267,-0.865571 1.69351,-1.542975 2.78488,-2.03221 1.09137,-0.451603 2.33328,-0.715037 3.72572,-0.715037 1.39244,0 2.67198,0.263434 3.76335,0.75267 1.09137,0.489236 1.99458,1.166639 2.70962,2.069844 0.71503,0.865571 1.27954,1.91931 1.61824,3.085949 0.37633,1.16664 0.52687,2.408546 0.52687,3.763353 v 1.542974 h -13.28464 v 0.63977 c 0,1.467708 0.4516,2.709614 1.31718,3.650452 0.9032,0.940839 2.14511,1.430074 3.80098,1.430074 1.20427,0 2.18275,-0.263434 3.01068,-0.790304 0.82794,-0.526869 1.50535,-1.204273 2.06985,-2.107477 l 2.37091,2.370912 c -0.71504,1.204273 -1.76878,2.145111 -3.12358,2.860148 -1.35481,0.715037 -2.97305,1.053739 -4.77946,1.053739 z m 0,-17.085621 c -0.6774,0 -1.31717,0.1129 -1.91931,0.376335 -0.60214,0.263435 -1.09137,0.602137 -1.50534,1.053739 -0.41397,0.451602 -0.71504,0.978472 -0.94084,1.618241 -0.2258,0.602137 -0.3387,1.317174 -0.3387,2.032211 v 0.263435 h 9.03205 v -0.376336 c 0,-1.505341 -0.37634,-2.67198 -1.16664,-3.612818 -0.79031,-0.940838 -1.80641,-1.354807 -3.16122,-1.354807 z m 18.13936,16.634018 c -1.43007,0 -2.48381,-0.376335 -3.19885,-1.091372 -0.71504,-0.715037 -1.09137,-1.768776 -1.09137,-3.123583 v -11.85456 h -3.01068 V 17.42861 h 1.65587 c 0.6774,0 1.12901,-0.150534 1.39244,-0.451602 0.26344,-0.301068 0.37634,-0.790304 0.37634,-1.467707 v -3.387018 h 3.65045 v 5.306327 h 4.06442 v 3.311751 h -4.06442 v 12.720132 h 3.76335 v 3.31175 h -3.53755 z m 15.35448,0.451603 c -1.39244,0 -2.63435,-0.225802 -3.72572,-0.715037 -1.09137,-0.489236 -2.03221,-1.16664 -2.78488,-2.032211 -0.75267,-0.865571 -1.35481,-1.956943 -1.76878,-3.198849 -0.41397,-1.241907 -0.60213,-2.634347 -0.60213,-4.177322 0,-1.542974 0.18816,-2.935415 0.60213,-4.177321 0.41397,-1.241907 1.01611,-2.333279 1.76878,-3.19885 0.75267,-0.865571 1.69351,-1.542975 2.78488,-2.03221 1.09137,-0.451603 2.33328,-0.715037 3.72572,-0.715037 1.39244,0 2.67198,0.263434 3.72572,0.75267 1.09137,0.489236 1.99457,1.166639 2.70961,2.069844 0.71504,0.865571 1.27954,1.91931 1.61824,3.085949 0.3387,1.16664 0.52687,2.408546 0.52687,3.763353 v 1.542974 h -13.28463 v 0.63977 c 0,1.467708 0.4516,2.709614 1.31717,3.650452 0.86557,0.940839 2.14511,1.430074 3.76335,1.430074 1.20428,0 2.18275,-0.263434 3.01069,-0.790304 0.82793,-0.526869 1.50534,-1.204273 2.06984,-2.107477 l 2.37091,2.370912 c -0.71504,1.204273 -1.76877,2.145111 -3.12358,2.860148 -1.35481,0.715037 -2.93542,1.053739 -4.77946,1.053739 z m 0,-17.085621 c -0.71504,0 -1.31718,0.1129 -1.91931,0.376335 -0.5645,0.263435 -1.09137,0.602137 -1.46771,1.053739 -0.41397,0.451602 -0.71504,0.978472 -0.94084,1.618241 -0.2258,0.602137 -0.3387,1.317174 -0.3387,2.032211 v 0.263435 h 9.03205 v -0.376336 c 0,-1.505341 -0.37634,-2.67198 -1.16664,-3.612818 -0.79031,-0.940838 -1.80641,-1.354807 -3.16122,-1.354807 z m 20.39737,17.085621 c -1.35481,0 -2.55908,-0.225802 -3.65045,-0.715037 -1.09138,-0.489236 -2.03221,-1.16664 -2.82252,-2.032211 -0.75267,-0.865571 -1.3548,-1.956943 -1.80641,-3.198849 -0.41397,-1.241907 -0.63977,-2.634347 -0.63977,-4.177322 0,-1.542974 0.2258,-2.935415 0.63977,-4.177321 0.41397,-1.241907 1.01611,-2.333279 1.80641,-3.19885 0.79031,-0.865571 1.69351,-1.542975 2.82252,-2.03221 1.09137,-0.451603 2.33328,-0.715037 3.65045,-0.715037 1.31717,0 2.55908,0.225801 3.65045,0.715037 1.09137,0.489235 2.03221,1.166639 2.82252,2.03221 0.7903,0.865571 1.3548,1.956943 1.8064,3.19885 0.41397,1.241906 0.63977,2.634347 0.63977,4.177321 0,1.542975 -0.2258,2.935415 -0.63977,4.177322 -0.41396,1.241906 -1.0161,2.333278 -1.8064,3.198849 -0.75268,0.865571 -1.69351,1.542975 -2.82252,2.032211 -1.129,0.489235 -2.33328,0.715037 -3.65045,0.715037 z m 0,-3.387018 c 1.39244,0 2.52145,-0.413968 3.34938,-1.27954 0.82794,-0.865571 1.27954,-2.145111 1.27954,-3.838619 v -3.274117 c 0,-1.693509 -0.41397,-2.973049 -1.27954,-3.83862 -0.86557,-0.865571 -1.95694,-1.27954 -3.34938,-1.27954 -1.39244,0 -2.52145,0.413969 -3.34938,1.27954 -0.82794,0.865571 -1.27954,2.145111 -1.27954,3.83862 v 3.274117 c 0,1.693508 0.41396,2.973048 1.27954,3.838619 0.86557,0.865572 1.95694,1.27954 3.34938,1.27954 z m 13.05883,2.935415 V 17.42861 h 4.06442 v 3.72572 h 0.18817 c 0.26344,-0.978472 0.86557,-1.844043 1.73114,-2.596714 0.86557,-0.75267 2.06985,-1.129006 3.61282,-1.129006 h 1.09137 v 3.913887 h -1.61824 c -1.61824,0 -2.86015,0.263435 -3.68808,0.790304 -0.86557,0.52687 -1.27954,1.27954 -1.27954,2.295645 v 12.38143 h -4.06442 z m 21.33821,0.451603 c -1.35481,0 -2.55908,-0.225802 -3.65045,-0.715037 -1.09137,-0.489236 -2.03221,-1.16664 -2.82251,-2.032211 -0.75268,-0.865571 -1.35481,-1.956943 -1.80641,-3.198849 -0.41397,-1.241907 -0.63977,-2.634347 -0.63977,-4.177322 0,-1.542974 0.2258,-2.935415 0.63977,-4.177321 0.41396,-1.241907 1.0161,-2.333279 1.80641,-3.19885 0.7903,-0.865571 1.6935,-1.542975 2.82251,-2.03221 1.09137,-0.451603 2.33328,-0.715037 3.65045,-0.715037 1.31718,0 2.55908,0.225801 3.65045,0.715037 1.09138,0.489235 2.03221,1.166639 2.82252,2.03221 0.7903,0.865571 1.3548,1.956943 1.80641,3.19885 0.41397,1.241906 0.63977,2.634347 0.63977,4.177321 0,1.542975 -0.2258,2.935415 -0.63977,4.177322 -0.41397,1.241906 -1.01611,2.333278 -1.80641,3.198849 -0.75267,0.865571 -1.69351,1.542975 -2.82252,2.032211 -1.129,0.489235 -2.33327,0.715037 -3.65045,0.715037 z m 0,-3.387018 c 1.39244,0 2.52145,-0.413968 3.34939,-1.27954 0.82793,-0.865571 1.27954,-2.145111 1.27954,-3.838619 v -3.274117 c 0,-1.693509 -0.41397,-2.973049 -1.27954,-3.83862 -0.86558,-0.865571 -1.95695,-1.27954 -3.34939,-1.27954 -1.39244,0 -2.52144,0.413969 -3.34938,1.27954 -0.82794,0.865571 -1.27954,2.145111 -1.27954,3.83862 v 3.274117 c 0,1.693508 0.41397,2.973048 1.27954,3.838619 0.86557,0.865572 1.95694,1.27954 3.34938,1.27954 z m 16.48349,2.935415 c -1.39244,0 -2.40855,-0.338701 -3.12359,-1.053738 -0.6774,-0.715037 -1.0161,-1.693509 -1.0161,-2.973049 V 9.2245018 h 4.06442 V 33.460493 h 2.67198 v 3.31175 h -2.59671 z m 13.73623,0.451603 c -1.3548,0 -2.55908,-0.225802 -3.65045,-0.715037 -1.09137,-0.489236 -2.03221,-1.16664 -2.82251,-2.032211 -0.75267,-0.865571 -1.35481,-1.956943 -1.80641,-3.198849 -0.41397,-1.241907 -0.63977,-2.634347 -0.63977,-4.177322 0,-1.542974 0.2258,-2.935415 0.63977,-4.177321 0.41397,-1.241907 1.0161,-2.333279 1.80641,-3.19885 0.7903,-0.865571 1.69351,-1.542975 2.82251,-2.03221 1.09137,-0.451603 2.33328,-0.715037 3.65045,-0.715037 1.31718,0 2.55908,0.225801 3.68809,0.715037 1.09137,0.489235 2.03221,1.166639 2.82251,2.03221 0.79031,0.865571 1.35481,1.956943 1.80641,3.19885 0.41397,1.241906 0.63977,2.634347 0.63977,4.177321 0,1.542975 -0.2258,2.935415 -0.63977,4.177322 -0.41397,1.241906 -1.0161,2.333278 -1.80641,3.198849 -0.75267,0.865571 -1.69351,1.542975 -2.82251,2.032211 -1.09137,0.489235 -2.33328,0.715037 -3.68809,0.715037 z m 0,-3.387018 c 1.39244,0 2.52145,-0.413968 3.34939,-1.27954 0.86557,-0.865571 1.27954,-2.145111 1.27954,-3.838619 v -3.274117 c 0,-1.693509 -0.41397,-2.973049 -1.27954,-3.83862 -0.82794,-0.865571 -1.95695,-1.27954 -3.34939,-1.27954 -1.39244,0 -2.52144,0.413969 -3.34938,1.27954 -0.82794,0.865571 -1.27954,2.145111 -1.27954,3.83862 v 3.274117 c 0,1.693508 0.41397,2.973048 1.27954,3.838619 0.86557,0.865572 1.95694,1.27954 3.34938,1.27954 z m 29.31652,4.779458 c 0,1.994577 -0.75267,3.537552 -2.29565,4.553657 -1.54297,1.016105 -4.06442,1.542974 -7.5267,1.542974 -1.58061,0 -2.93542,-0.1129 -4.02679,-0.301068 -1.09137,-0.225801 -1.99457,-0.526869 -2.70961,-0.903205 -0.71504,-0.413968 -1.20427,-0.865571 -1.54298,-1.467707 -0.3387,-0.564503 -0.48923,-1.241906 -0.48923,-1.956943 0,-1.053739 0.30107,-1.91931 0.86557,-2.483813 0.5645,-0.602137 1.39244,-1.016105 2.44618,-1.241906 v -0.413969 c -1.46771,-0.451603 -2.18275,-1.467708 -2.18275,-2.973049 0,-0.978471 0.33871,-1.768776 1.01611,-2.295645 0.6774,-0.526869 1.46771,-0.903205 2.40854,-1.129006 v -0.150534 c -1.129,-0.526869 -2.03221,-1.317173 -2.63434,-2.295645 -0.60214,-0.978472 -0.90321,-2.145111 -0.90321,-3.462284 0,-1.994577 0.67741,-3.575185 1.99458,-4.817092 1.31717,-1.241906 3.23648,-1.806409 5.7203,-1.806409 1.3548,0 2.52144,0.188168 3.49991,0.602137 v -0.52687 c 0,-0.865571 0.18817,-1.542974 0.60214,-2.03221 0.41397,-0.489236 1.05374,-0.715037 1.91931,-0.715037 h 2.97305 v 3.274117 h -3.95152 v 0.790304 c 0.86557,0.564503 1.54297,1.317173 1.99458,2.220378 0.4516,0.903204 0.71503,1.91931 0.71503,3.048315 0,1.956944 -0.6774,3.537552 -1.99457,4.741825 -1.35481,1.204272 -3.27412,1.806409 -5.75793,1.806409 -0.94084,0 -1.76878,-0.112901 -2.52145,-0.301068 -0.48924,0.188167 -0.94084,0.413968 -1.31717,0.715037 -0.37634,0.301068 -0.56451,0.715037 -0.56451,1.204272 0,0.52687 0.2258,0.903205 0.71504,1.129006 0.48924,0.225801 1.12901,0.338702 1.99458,0.338702 h 4.77946 c 2.37091,0 4.10205,0.489236 5.19342,1.430074 1.09137,0.940838 1.61824,2.258011 1.61824,3.913887 z m -3.80099,0.451602 c 0,-0.677403 -0.26343,-1.204272 -0.75267,-1.618241 -0.48923,-0.413969 -1.43007,-0.602137 -2.78488,-0.602137 h -6.54823 c -0.90321,0.52687 -1.35481,1.27954 -1.35481,2.220378 0,0.790304 0.30107,1.430074 0.94084,1.91931 0.63977,0.489236 1.69351,0.715037 3.23648,0.715037 h 2.52145 c 3.16122,0 4.74182,-0.903204 4.74182,-2.67198 z M 725.768,27.250961 c 1.20428,0 2.10748,-0.263435 2.78488,-0.790304 0.67741,-0.52687 0.97847,-1.354807 0.97847,-2.483813 v -0.752671 c 0,-1.129005 -0.3387,-1.956943 -0.97847,-2.483812 -0.63977,-0.52687 -1.5806,-0.790304 -2.78488,-0.790304 -1.20427,0 -2.10748,0.263434 -2.78488,0.790304 -0.6774,0.526869 -0.97847,1.354807 -0.97847,2.483812 v 0.752671 c 0,1.129006 0.3387,1.956943 0.97847,2.483813 0.63977,0.526869 1.58061,0.790304 2.78488,0.790304 z m 15.05341,-12.117996 -2.52144,-1.241906 3.38701,-6.6987676 3.53756,1.7311422 z M 738.3376,36.809876 V 17.42861 h 4.06442 v 19.381266 z m 23.74675,0 c -1.05373,0 -1.88167,-0.301068 -2.44617,-0.903204 -0.56451,-0.602137 -0.90321,-1.392441 -1.05374,-2.333279 h -0.18817 c -0.37634,1.204273 -1.05374,2.145111 -2.03221,2.747247 -0.97847,0.63977 -2.18275,0.940839 -3.61282,0.940839 -1.99458,0 -3.57518,-0.52687 -4.62892,-1.580608 -1.05374,-1.053739 -1.61824,-2.44618 -1.61824,-4.214955 0,-1.91931 0.71503,-3.387018 2.10747,-4.365489 1.39244,-0.978472 3.46229,-1.467708 6.1719,-1.467708 h 3.49992 v -1.655875 c 0,-1.204273 -0.3387,-2.107477 -0.97847,-2.747247 -0.63977,-0.63977 -1.65588,-0.978472 -3.01068,-0.978472 -1.12901,0 -2.06985,0.263435 -2.78489,0.75267 -0.71503,0.489236 -1.31717,1.129006 -1.80641,1.91931 l -2.40854,-2.182744 c 0.63977,-1.091373 1.54297,-1.994577 2.70961,-2.709614 1.16664,-0.715037 2.70962,-1.053739 4.59129,-1.053739 2.52145,0 4.44076,0.564503 5.75793,1.731142 1.31718,1.16664 1.99458,2.860148 1.99458,5.042893 v 9.70945 H 764.38 v 3.31175 h -2.25801 z m -8.2041,-2.634346 c 1.27954,0 2.29564,-0.263435 3.12358,-0.827938 0.82794,-0.564503 1.24191,-1.317173 1.24191,-2.258012 v -2.784881 h -3.42466 c -2.82251,0 -4.21495,0.865572 -4.21495,2.596714 v 0.677403 c 0,0.865571 0.30107,1.505341 0.86557,1.956944 0.5645,0.451602 1.39244,0.63977 2.40855,0.63977 z M 19.57489,47.497798 c -6.43534,0 -11.70403,-5.23106 -11.74166,-11.62876 0,-3.123582 1.16664,-6.096631 3.34938,-8.354643 2.18275,-2.258011 5.15579,-3.499918 8.27938,-3.537551 h 0.1129 c 6.43533,0 11.70402,5.23106 11.74166,11.628759 0.0753,6.472967 -5.1558,11.816928 -11.62876,11.892195 z m 50.72999,0 c -2.06984,0 -4.06442,-0.903205 -5.45686,-2.446179 L 48.47744,26.799358 c -1.76878,-1.956943 -2.55908,-4.403122 -2.52145,-7.714872 l 0.0753,-8.354643 c 0,-1.4677077 1.16664,-2.5967135 2.63434,-2.5967135 0.45161,0 0.90321,0.1129006 1.31718,0.3387018 1.84404,1.0161052 3.72572,1.9569437 5.60739,2.7096137 6.13427,2.483813 12.7954,3.763353 19.83287,3.763353 22.05325,0 44.8968,-12.4566974 63.26196,-22.4295817 l 0.82793,-0.4516024 c 6.54824,-3.5751849 13.09647,-7.3761709 19.4189,-11.1018899 2.52145,-1.467708 5.0429,-2.973049 7.56434,-4.403123 0.45161,-0.263434 0.94084,-0.376335 1.43008,-0.376335 1.20427,0 2.25801,0.715037 2.70961,1.844043 l 2.40855,6.247165 c 0.86557,2.220378 0.48923,4.779458 -0.94084,6.6987677 l -2.59672,3.4246508 c -0.71503,0.9408382 -1.6935,1.5806081 -2.82251,1.8064093 -7.63961,1.7311422 -19.49417,4.8923584 -32.70353,10.1234185 -24.42416,9.7094497 -43.9936,22.6930157 -58.1438,38.6496307 -1.39244,1.580609 -3.42465,2.483813 -5.4945,2.483813 v 0 z m 36.57979,-12.343797 c -1.20428,0 -2.22038,-0.75267 -2.59672,-1.91931 -0.3387,-1.166639 0.0753,-2.370912 1.09138,-3.048315 13.39753,-8.881512 29.20361,-16.182416 47.00427,-21.7145447 0.26344,-0.075267 0.5645,-0.1129006 0.86557,-0.1129006 1.05374,0 1.99458,0.6021364 2.48381,1.5806081 0.48924,0.9784712 0.37634,2.0698442 -0.30106,2.9354152 l -13.66097,17.913558 c -1.84405,2.446179 -4.66656,3.876253 -7.75251,3.913887 l -27.17141,0.489236 z M 74.9338,6.8535896 c -4.96762,0 -9.67181,-0.7526705 -13.9244,-2.1827445 C 57.24605,3.3913053 53.52033,1.509629 49.94514,-0.93655023 47.57423,-2.5547918 46.18179,-5.2267722 46.21942,-8.1245537 l 0.1129,-12.0803623 c 0,-2.069843 1.73115,-3.800986 3.80099,-3.800986 0.75267,0 1.50534,0.225802 2.14511,0.677404 4.44076,3.048315 8.76861,5.494495 13.247,7.489071 7.94068,3.537552 16.93509,5.419228 26.0424,5.419228 15.54265,0 29.42942,-5.306327 39.0636,-14.94051 8.35465,-8.354642 11.17716,-18.89203 7.63961,-28.864914 -3.80099,-10.838455 -13.51044,-19.343632 -22.50485,-26.268201 -6.58587,-5.042893 -13.32227,-9.596549 -18.44043,-13.0212 -1.84404,-1.204273 -3.72572,-2.483813 -5.53213,-3.725719 -9.14494,-6.171897 -18.55332,-12.569597 -28.90254,-16.521117 -5.1558,-1.95694 -10.01052,-2.93542 -14.41364,-2.93542 -4.40313,0 -8.35465,0.97848 -11.81693,2.93542 -6.54824,3.72572 -11.55349,10.38685 -15.27921,20.359736 -0.67741,1.80641 -2.48382,3.048316 -4.44076,3.048316 -0.15053,0 -0.3387,0 -0.48924,0 l -2.33327,-0.225801 c -4.10206,-0.413969 -7.56434,-3.387017 -8.61808,-7.376171 l -3.46229,-13.32227 c -0.94083,-3.65045 0.30107,-7.60197 3.16122,-10.08578 l 11.44059,-9.74709 c 1.80641,-1.54297 4.10206,-2.37091 6.43534,-2.37091 0.26343,0 0.52686,0 0.7903,0 l 77.93903,6.13427 c 2.59672,0.18816 4.81709,1.84404 5.8332,4.25258 1.99458,4.85473 3.83862,9.18258 6.13426,13.0212 5.23106,8.76862 12.41907,15.279216 21.41348,19.38127 4.74182,2.182745 9.82235,3.725719 14.75234,5.23106 3.68809,1.129006 7.48907,2.295646 11.13953,3.72572 4.51602,1.731142 8.0912,3.763352 10.95135,6.171898 3.12358,2.634347 4.96763,6.397699 5.23106,10.575021 0.26344,4.327855 -1.27954,8.655711 -4.25259,11.816927 l -6.54823,7.037469 c -2.18275,2.333279 -2.86015,5.720296 -1.73114,8.693345 l 0.9032,2.483812 c 0.52687,1.430074 -0.0753,3.010682 -1.39244,3.763353 -4.10205,2.295645 -8.24174,4.666557 -12.23089,6.962202 -4.25259,2.446179 -8.61808,4.967626 -13.0212,7.413805 l -1.58061,0.865571 C 123.21762,-8.1245537 108.54054,-0.03334561 92.73446,4.1816093 86.2615,5.9127515 80.46593,6.7406891 75.00907,6.7406891 Z M 97.77735,-55.542796 c 2.18275,4.327855 0.94084,9.483648 -2.93541,11.967461 -2.18275,1.39244 -4.77946,2.107477 -7.71487,2.107477 -8.91915,0 -19.0802,-6.5106 -22.20378,-14.263106 -1.46771,-3.650452 -1.01611,-7.827773 1.16664,-10.98899 1.95694,-2.822514 5.00525,-4.290222 8.73097,-4.290222 8.09121,0 18.81677,7.225637 22.95645,15.429746 z m 33.71964,7.15037 c -2.25801,-13.209368 -19.11783,-24.875761 -28.14987,-31.122926 -0.97848,-0.677404 -1.84405,-1.27954 -2.63435,-1.844043 -2.93542,-1.956944 -5.90846,-4.064421 -8.80625,-6.058998 -10.87608,-7.601972 -22.12851,-15.467377 -34.92391,-19.832867 -2.70961,-0.97847 -5.34396,-1.46771 -7.8654,-1.46771 -8.20411,0 -14.90288,5.04289 -18.77913,14.225474 -0.56451,1.241907 -0.48924,2.634347 0.15053,3.83862 0.6774,1.204273 1.84404,1.956943 3.23648,2.107477 l 9.18258,0.940838 c 2.33328,0.263435 4.02679,2.182745 3.98916,4.516024 l -0.37634,38.574364 c 0,4.290222 1.91931,8.354642 5.19343,10.951356 6.36006,5.005259 12.6825,8.693344 19.34363,11.327691 6.24717,2.446179 13.39754,3.763353 20.66081,3.763353 15.65554,0 28.86491,-5.833197 36.20345,-16.031882 3.16121,-4.365489 4.32785,-9.032047 3.49992,-13.886771 z m -40.38077,14.601808 c -1.12901,0.150534 -2.33328,0.263434 -3.49992,0.263434 -10.95135,0 -23.06935,-7.112736 -28.75201,-16.897453 -4.06442,-6.999836 -4.29022,-14.488907 -0.60214,-21.037141 3.23649,-4.854725 8.91915,-7.677239 15.58028,-7.677239 2.82252,0 5.64503,0.489236 8.24174,1.467707 15.05341,5.23106 22.99409,16.897453 24.12309,26.155301 0.67741,8.655711 -5.68266,16.069515 -15.09104,17.687757 z m 3.72572,-9.747084 c -2.18275,1.392441 -4.77946,2.107478 -7.71487,2.107478 -8.91915,0 -19.0802,-6.5106 -22.20378,-14.263107 -1.46771,-3.650452 -1.01611,-7.827773 1.16664,-10.988989 1.95694,-2.822515 5.00525,-4.290222 8.73097,-4.290222 8.09121,0 18.81677,7.225637 22.95645,15.429746 2.18275,4.327855 0.94084,9.483648 -2.93541,11.967461 z m 108.27165,10.311586 c -6.3977,0 -11.70402,-5.23106 -11.74166,-11.628759 -0.0753,-6.472967 5.1558,-11.816927 11.62876,-11.892194 h 0.1129 c 6.43534,0 11.70403,5.23106 11.74166,11.628759 0,3.123583 -1.16664,6.096631 -3.34938,8.354643 -2.18274,2.258012 -5.15579,3.499918 -8.27938,3.537551 z M 93.1108,54.46 c -2.89778,0 -5.2687,-2.370912 -5.30633,-5.23106 0,-2.935415 2.33328,-5.343961 5.23106,-5.343961 h 0.0376 c 2.89779,0 5.2687,2.370912 5.30633,5.23106 0,1.430074 -0.52687,2.747248 -1.50534,3.763353 C 95.89565,53.895497 94.54084,54.46 93.1484,54.46 Z m 16.37058,0 c -2.89778,0 -5.26869,-2.370912 -5.30633,-5.23106 0,-2.935415 2.33328,-5.343961 5.23106,-5.343961 h 0.0376 c 2.89778,0 5.26869,2.370912 5.30632,5.23106 0,1.430074 -0.52686,2.747248 -1.50534,3.763353 C 112.26622,53.895497 110.91142,54.46 109.51897,54.46 Z M 94.84194,-43.537702 c -2.18275,1.392441 -4.77946,2.107478 -7.71487,2.107478 -8.91915,0 -19.0802,-6.5106 -22.20378,-14.263107 -1.46771,-3.650452 -1.01611,-7.827773 1.16664,-10.988989 1.95694,-2.822515 5.00525,-4.290222 8.73097,-4.290222 8.09121,0 18.81677,7.225637 22.95645,15.429746 2.18275,4.327855 0.94084,9.483648 -2.93541,11.967461 z m 92.76664,-26.080033 c -1.0161,0 -1.88168,-0.564503 -2.29564,-1.467708 -2.78489,-6.058997 -7.26327,-10.876089 -13.28464,-14.30074 -6.02136,-3.42465 -12.72013,-5.494494 -19.23073,-7.526705 -2.67198,-0.827937 -5.41923,-1.693508 -8.12884,-2.634347 -10.95136,-3.838619 -18.44043,-9.446015 -23.48332,-17.650125 -1.50534,-2.44618 -2.93542,-5.23106 -4.47839,-8.69334 -0.41397,-0.90321 -0.30107,-1.91931 0.2258,-2.74725 0.52687,-0.82794 1.43007,-1.27954 2.37091,-1.27954 0.0753,0 0.15054,0 0.2258,0 l 28.45095,2.25801 c 3.27411,0.26344 6.3977,1.35481 9.03204,3.23648 15.61792,10.87609 27.54775,20.39738 37.5959,29.956291 1.54297,1.467708 3.08595,3.010683 4.77945,4.704191 1.31718,1.354807 1.31718,3.499918 0,4.854725 l -9.93525,10.46212 c -0.48923,0.52687 -1.16664,0.827938 -1.88167,0.827938 z m 19.6447,-20.81134 c -0.7903,0 -1.50534,-0.301068 -2.06984,-0.865571 -0.86557,-0.865571 -1.73114,-1.731142 -2.52145,-2.521446 -7.6396,-7.451438 -16.22005,-14.827608 -26.30583,-22.467218 -0.97847,-0.75267 -1.35481,-1.95694 -0.94084,-3.12358 0.37633,-1.12901 1.39244,-1.88168 2.59671,-1.88168 0.0753,0 0.15054,0 0.2258,0 l 36.31636,2.86015 c 2.93541,0.2258 5.41922,2.18275 6.36006,5.00526 l 1.05374,3.19885 c 0.82794,2.52145 0.18817,5.30633 -1.65587,7.26327 l -10.98899,11.591127 c -0.56451,0.564503 -1.27954,0.903204 -2.06985,0.903204 z"
         inkscape:connector-curvature="0"
         style="fill:#1951a3;stroke-width:3.76335263" />
    </g>
  </g>
</svg>
